<?xml version="1.0" encoding="utf-8"?>
<!-- Generator: Adobe Illustrator 24.2.0, SVG Export Plug-In . SVG Version: 6.00 Build 0)  -->
<svg version="1.1" id="Calque_1" xmlns="http://www.w3.org/2000/svg" xmlns:xlink="http://www.w3.org/1999/xlink" x="0px" y="0px"
	 viewBox="0 0 24 24" style="enable-background:new 0 0 24 24;" xml:space="preserve">
<style type="text/css">
	.st0{fill-rule:evenodd;clip-rule:evenodd;fill:#FFFFFF;}
</style>
<path class="st0" d="M15,23l-9.3-6H0V7h5.7L15,1V23z M6,8v8l8,5.2V2.8C14,2.8,6,8,6,8z M20.2,3.8c2.3,2,3.8,4.9,3.8,8.2
	c0,3.3-1.4,6.2-3.8,8.2l-0.7-0.7C21.7,17.7,23,15,23,12s-1.3-5.7-3.5-7.5C19.5,4.5,20.2,3.8,20.2,3.8z M17.3,6.7
	c1.5,1.3,2.5,3.2,2.5,5.3s-1,4-2.5,5.3l-0.7-0.7c1.3-1.1,2.2-2.7,2.2-4.6c0-1.9-0.9-3.5-2.2-4.6C16.6,7.4,17.3,6.7,17.3,6.7z M5,8H1
	v8h4V8z"/>
</svg>
